<?xml version="1.0" standalone="no"?>
<!DOCTYPE svg PUBLIC "-//W3C//DTD SVG 20010904//EN"
 "http://www.w3.org/TR/2001/REC-SVG-20010904/DTD/svg10.dtd">
<svg version="1.0" xmlns="http://www.w3.org/2000/svg"
 width="541.000000pt" height="433.000000pt" viewBox="0 0 541.000000 433.000000"
 preserveAspectRatio="xMidYMid meet">

<g transform="translate(0.000000,433.000000) scale(0.100000,-0.100000)"
fill="#000000" stroke="none">
<path d="M1727 4320 c-161 -27 -292 -169 -317 -342 -6 -35 -10 -619 -10 -1323
0 -1330 -1 -1356 -46 -1513 -39 -134 -118 -244 -213 -295 -27 -15 -85 -37
-128 -48 -104 -28 -329 -30 -491 -4 -157 24 -240 18 -320 -25 -76 -40 -115
-83 -156 -170 -29 -60 -31 -73 -31 -170 0 -97 2 -110 32 -172 63 -134 162
-197 353 -224 160 -22 471 -30 611 -14 613 67 989 420 1114 1045 13 66 29 161
36 210 16 122 25 2584 10 2697 -17 123 -73 219 -164 282 -87 59 -183 82 -280
66z"/>
<path d="M2880 3910 l0 -361 1113 3 c1038 3 1115 4 1157 21 121 47 206 141
236 257 40 159 -34 317 -188 401 l-63 34 -1127 3 -1128 2 0 -360z"/>
<path d="M3540 2515 c-344 -7 -633 -13 -642 -14 -17 -1 -18 -25 -18 -361 l0
-360 53 0 c368 3 1549 31 1572 38 107 33 197 109 242 207 23 51 28 73 28 145
0 72 -4 93 -27 140 -43 88 -90 135 -176 177 l-76 38 -165 1 c-92 1 -447 -4
-791 -11z"/>
<path d="M2880 400 l0 -361 1113 3 c1038 3 1115 4 1157 21 72 28 146 84 184
140 125 183 54 429 -152 525 l-57 27 -1122 3 -1123 2 0 -360z"/>
</g>
</svg>
